# xmcd
#
# Track frame offsets: 
#        150
#        17801
#        33628
#        45696
#        62089
#        74236
#        86607
#        106242
#        119119
#        134479
#        146943
#        162504
#        190711
#        201306
#
# Disc length: 3033 seconds
#
# Revision: 0
# Processed by: cddbd v1.5.2PL0 Copyright (c) Steve Scherf et al.
# Submitted via: ExactAudioCopy v1.3
#
DISCID=e10bd70e
DTITLE=urban pioneers - vehicle in transit
DYEAR=2015
DGENRE=Bluegrass
TTITLE0=75 southbound blues
TTITLE1=chocolate easter bunny
TTITLE2=something that's never been done
TTITLE3=praying for rain
TTITLE4=they say that in the navy
TTITLE5=tennessee moon
TTITLE6=walk this earth
TTITLE7=what takes a woman
TTITLE8=found out about you
TTITLE9=headed west
TTITLE10=ballad of charlotte and charlie
TTITLE11=kitchen girl ~ june apple ~ eagle hawk stomp
TTITLE12=big spike hammer
TTITLE13=just over the horizon
EXTD=
EXTT0=
EXTT1=
EXTT2=
EXTT3=
EXTT4=
EXTT5=
EXTT6=
EXTT7=
EXTT8=
EXTT9=
EXTT10=
EXTT11=
EXTT12=
EXTT13=
PLAYORDER=
